<?xml version="1.0"?>
<svg version="1.1" xmlns="http://www.w3.org/2000/svg" width="150px" height="80px" style=""><path fill="#f5f5f5" d="M24.8935546875,36.42578125q0-0.6884765625,0.03662109375-1.3623046875t0.12451171875-1.3330078125q0.05859375-0.3369140625,0.52001953125-0.4833984375t0.76904296875-0.146484375l0.3515625,0.029296875q0.4248046875,0.05859375,0.85693359375-0.05859375t0.85693359375-0.1171875q0.99609375,0,2.2265625,0.2197265625t2.30712890625,0.7470703125t1.80908203125,1.38427734375t0.732421875,2.11669921875t-0.76171875,2.35107421875t-1.9189453125,1.9189453125t-2.490234375,1.29638671875t-2.4462890625,0.46875q0.1171875,2.8271484375,0.32958984375,5.6103515625t0.72509765625,5.56640625l0.029296875,0.1904296875q0,0.205078125-0.18310546875,0.3369140625t-0.43212890625,0.21240234375t-0.50537109375,0.10986328125t-0.41748046875,0.029296875q-0.3662109375,0-0.88623046875-0.13916015625t-0.63720703125-0.54931640625q-0.3369140625-1.2890625-0.52734375-2.83447265625t-0.2783203125-3.22998046875t-0.12451171875-3.39111328125t-0.03662109375-3.33251953125l0-3.2958984375q0-0.5419921875-0.0146484375-1.1279296875t-0.0146484375-1.1865234375z M27.662109375,34.052734375q0,2.0068359375,0.0439453125,4.00634765625t0.1025390625,4.00634765625q0.8642578125-0.17578125,1.76513671875-0.62255859375t1.6259765625-1.06201171875t1.171875-1.39892578125t0.44677734375-1.64794921875q0-0.7763671875-0.38818359375-1.3916015625t-1.00341796875-1.0546875q-0.6005859375-0.4248046875-1.3623046875-0.6591796875q-0.673828125-0.205078125-1.318359375-0.205078125l-0.1611328125,0z M38.482470703125,45.4345703125q0-0.6005859375,0.21240234375-1.0107421875t0.90087890625-0.41015625q0.263671875,0,0.6591796875,0.08056640625t0.4541015625,0.40283203125q0.146484375,0.8642578125,0.1611328125,1.875t0.1025390625,1.904296875q0.3369140625-0.6591796875,0.8642578125-1.4208984375t1.201171875-1.40625t1.46484375-1.0693359375t1.611328125-0.4248046875q0.05859375,0,0.2197265625,0.0439453125t0.30029296875,0.12451171875t0.16845703125,0.18310546875t-0.1611328125,0.1904296875q-0.05859375,0.17578125-0.2490234375,0.21240234375t-0.3369140625,0.03662109375q-0.087890625,0-0.2783203125-0.0732421875q-1.083984375,0.5712890625-1.845703125,1.552734375t-1.2451171875,2.17529296875t-0.703125,2.51953125t-0.2197265625,2.58544921875q0,0.6298828125-0.28564453125,0.76171875t-0.91552734375,0.1318359375q-0.3369140625,0-0.71044921875-0.0732421875t-0.52001953125-0.46875q-0.263671875-0.8349609375-0.43212890625-1.9189453125t-0.25634765625-2.23388671875t-0.12451171875-2.26318359375t-0.03662109375-2.0068359375z M48.89267578125,49.5361328125q0-0.99609375,0.27099609375-1.9189453125t0.81298828125-1.64794921875t1.35498046875-1.1572265625t1.88232421875-0.43212890625q0.6591796875,0,1.45751953125,0.19775390625t1.50146484375,0.5859375t1.171875,0.98876953125t0.46875,1.376953125q0,0.3662109375-0.12451171875,0.556640625t-0.50537109375,0.1904296875l-0.1611328125-0.029296875q0.4248046875,1.142578125,0.732421875,2.34375t0.6005859375,2.40234375q0.1171875,0.234375,0.17578125,0.41748046875t0.05859375,0.35888671875q0,0.234375-0.1318359375,0.38818359375t-0.34423828125,0.22705078125t-0.439453125,0.1025390625t-0.40283203125,0.029296875q-0.6298828125,0-0.94482421875-0.2197265625t-0.4541015625-0.6005859375t-0.16845703125-0.85693359375t-0.1171875-0.95947265625q-0.17578125,0.5712890625-0.46142578125,1.11328125t-0.673828125,0.97412109375t-0.91552734375,0.6884765625t-1.1865234375,0.25634765625q-0.966796875,0-1.6259765625-0.556640625t-1.06201171875-1.36962890625t-0.5859375-1.73583984375t-0.18310546875-1.7138671875z M50.97275390625,49.3310546875q0,0.5419921875,0.0732421875,1.142578125t0.24169921875,1.1865234375t0.43212890625,1.10595703125t0.6591796875,0.91552734375q0.7177734375-0.7763671875,1.06201171875-1.8896484375t0.615234375-2.14599609375t0.615234375-1.7724609375t1.06201171875-0.73974609375q0.4541015625,0,0.76171875,0.1611328125q-0.146484375-0.3662109375-0.4833984375-0.71044921875t-0.75439453125-0.6298828125t-0.8642578125-0.46875t-0.84228515625-0.18310546875q-0.1171875,0-0.27099609375,0.03662109375t-0.24169921875,0.00732421875q-0.6005859375,0.17578125-0.98876953125,0.60791015625t-0.6298828125,1.01806640625t-0.34423828125,1.201171875t-0.1025390625,1.1572265625z M59.119775390625,65.20263671875q0.05126953125-0.21240234375,0.21240234375-0.32958984375t0.52734375-0.1171875q0.3955078125,0,0.7470703125,0.234375t0.5126953125,0.5712890625q0.5126953125-0.8056640625,0.8056640625-1.875t0.44677734375-2.2265625t0.18310546875-2.27783203125t0.029296875-2.05810546875q0-2.9443359375,0.0732421875-5.7861328125t0.234375-5.7861328125q0-0.205078125,0.17578125-0.34423828125t0.40283203125-0.21240234375t0.46875-0.1025390625t0.41748046875-0.029296875q0.3369140625,0,0.6591796875,0.087890625t0.6005859375,0.263671875l0.17578125,0.3369140625q-0.029296875,2.0947265625-0.1171875,4.18212890625t-0.087890625,4.15283203125q0,0.8056640625,0.029296875,2.109375q0.0146484375,0.4248046875,0.0146484375,0.87890625q0,0.908203125-0.0439453125,1.904296875q-0.05859375,1.494140625-0.25634765625,3.01025390625t-0.64453125,2.74658203125t-1.2158203125,2.01416015625t-1.94091796875,0.78369140625q-0.5126953125,0-0.95947265625-0.12451171875t-0.79833984375-0.47607421875q-0.3369140625-0.29296875-0.4833984375-0.6298828125q-0.087890625-0.205078125-0.15380859375-0.44677734375t-0.0146484375-0.4541015625z M63.272607421875,41.7724609375l0-0.90087890625t0.1025390625-0.791015625t0.38818359375-0.556640625t0.82763671875-0.21240234375q0.205078125,0,0.41748046875,0.029296875t0.40283203125,0.1171875l0.322265625,0.3662109375q0,0.4248046875,0.0146484375,0.9375l0,0.1171875q0,0.439453125-0.087890625,0.8203125q-0.1025390625,0.4541015625-0.37353515625,0.76904296875t-0.84228515625,0.31494140625q-0.4541015625,0-0.6884765625-0.1318359375t-0.4541015625-0.556640625z M68.790234375,49.5361328125q0-0.99609375,0.27099609375-1.9189453125t0.81298828125-1.64794921875t1.35498046875-1.1572265625t1.88232421875-0.43212890625q0.6591796875,0,1.45751953125,0.19775390625t1.50146484375,0.5859375t1.171875,0.98876953125t0.46875,1.376953125q0,0.3662109375-0.12451171875,0.556640625t-0.50537109375,0.1904296875l-0.1611328125-0.029296875q0.4248046875,1.142578125,0.732421875,2.34375t0.6005859375,2.40234375q0.1171875,0.234375,0.17578125,0.41748046875t0.05859375,0.35888671875q0,0.234375-0.1318359375,0.38818359375t-0.34423828125,0.22705078125t-0.439453125,0.1025390625t-0.40283203125,0.029296875q-0.6298828125,0-0.94482421875-0.2197265625t-0.4541015625-0.6005859375t-0.16845703125-0.85693359375t-0.1171875-0.95947265625q-0.17578125,0.5712890625-0.46142578125,1.11328125t-0.673828125,0.97412109375t-0.91552734375,0.6884765625t-1.1865234375,0.25634765625q-0.966796875,0-1.6259765625-0.556640625t-1.06201171875-1.36962890625t-0.5859375-1.73583984375t-0.18310546875-1.7138671875z M70.8703125,49.3310546875q0,0.5419921875,0.0732421875,1.142578125t0.24169921875,1.1865234375t0.43212890625,1.10595703125t0.6591796875,0.91552734375q0.7177734375-0.7763671875,1.06201171875-1.8896484375t0.615234375-2.14599609375t0.615234375-1.7724609375t1.06201171875-0.73974609375q0.4541015625,0,0.76171875,0.1611328125q-0.146484375-0.3662109375-0.4833984375-0.71044921875t-0.75439453125-0.6298828125t-0.8642578125-0.46875t-0.84228515625-0.18310546875q-0.1171875,0-0.27099609375,0.03662109375t-0.24169921875,0.00732421875q-0.6005859375,0.17578125-0.98876953125,0.60791015625t-0.6298828125,1.01806640625t-0.34423828125,1.201171875t-0.1025390625,1.1572265625z M81.485595703125,55.4833984375l0.3076171875-0.3662109375q-0.05859375-2.4609375-0.1318359375-4.9072265625t-0.0732421875-4.86328125q0-3.0029296875,0.35888671875-5.80810546875t0.71044921875-5.74951171875q0.029296875-0.17578125,0.16845703125-0.28564453125t0.34423828125-0.18310546875t0.41748046875-0.1025390625t0.38818359375-0.029296875q0.234375,0,0.5859375,0.087890625t0.703125,0.5126953125q0,0.146484375,0.02197265625,0.25634765625t0.02197265625,0.25634765625q0,1.11328125-0.30029296875,2.3876953125t-0.40283203125,2.4462890625q-0.1171875,1.435546875-0.1611328125,2.841796875t-0.0439453125,2.8564453125l0.029296875,1.2890625q0.29296875-0.3662109375,0.8349609375-0.9375t1.171875-1.10595703125t1.259765625-0.91552734375t1.142578125-0.380859375q0.7763671875,0,1.07666015625,0.439453125t0.30029296875,1.1572265625q0,0.6591796875-0.28564453125,1.376953125t-0.7470703125,1.39892578125t-1.04736328125,1.22314453125t-1.1572265625,0.8056640625q0.7763671875,0.966796875,1.58935546875,1.845703125t1.77978515625,1.6552734375l0,0.3369140625q-0.029296875,0.146484375-0.18310546875,0.2197265625t-0.3369140625,0.1171875t-0.35888671875,0.06591796875t-0.29296875,0.02197265625q-0.7177734375,0-1.38427734375-0.4248046875t-1.2451171875-1.0400390625t-1.09130859375-1.3037109375t-0.9375-1.201171875q0.087890625,1.6845703125,0.19775390625,3.36181640625t0.10986328125,3.36181640625q0,0.205078125-0.18310546875,0.34423828125t-0.4248046875,0.21240234375t-0.49072265625,0.1025390625t-0.41015625,0.029296875q-0.8642578125,0-1.22314453125-0.31494140625t-0.60791015625-1.09130859375z M84.488525390625,48.583984375q0.3662109375,0,0.87158203125-0.31494140625t1.04736328125-0.78369140625t1.0107421875-0.98876953125t0.75439453125-0.98876953125t0.28564453125-0.75439453125t-0.3955078125-0.25634765625q-0.146484375,0-0.6005859375,0.4248046875t-1.0107421875,1.0400390625t-1.11328125,1.3330078125t-0.849609375,1.2890625z M92.74541015625,40.234375q0-0.205078125,0.439453125-0.3515625t0.99609375-0.24169921875t1.07666015625-0.13916015625t0.71044921875-0.0732421875q0-0.3955078125,0.029296875-0.79833984375t0.1611328125-0.7177734375t0.41748046875-0.50537109375t0.79833984375-0.1904296875q0.4248046875,0,0.64453125,0.1025390625t0.46875,0.4248046875q0.05859375,0.17578125,0.05859375,0.3369140625l0,0.49072265625t-0.029296875,0.50537109375q0.5419921875-0.05859375,1.07666015625-0.13916015625t1.07666015625-0.08056640625q0.3955078125,0,0.5419921875,0.0146484375t0.29296875,0.3515625q0.1171875,0.3369140625-0.28564453125,0.5126953125t-0.966796875,0.263671875t-1.12060546875,0.1318359375t-0.673828125,0.0439453125q-0.17578125,2.51953125-0.35888671875,4.9951171875t-0.18310546875,5.0244140625q0,1.142578125,0.0732421875,2.3583984375t0.41015625,2.2998046875q0.087890625,0.3369140625,0.29296875,0.6298828125t0.205078125,0.6298828125q0,0.205078125-0.1611328125,0.322265625t-0.38818359375,0.19775390625t-0.4541015625,0.09521484375t-0.37353515625,0.0146484375q-0.9228515625,0-1.40625-0.6884765625t-0.69580078125-1.64794921875t-0.22705078125-1.97021484375t-0.0146484375-1.640625q0-1.2890625,0.05126953125-2.63671875t0.12451171875-2.666015625t0.205078125-2.578125t0.3076171875-2.34375q-0.5126953125,0.05859375-1.00341796875,0.1318359375t-1.00341796875,0.0732421875q-0.1171875,0-0.31494140625-0.0146484375t-0.37353515625-0.0732421875t-0.30029296875-0.1611328125t-0.12451171875-0.29296875z M103.94663085938,49.5361328125q0-0.99609375,0.27099609375-1.9189453125t0.81298828125-1.64794921875t1.35498046875-1.1572265625t1.88232421875-0.43212890625q0.6591796875,0,1.45751953125,0.19775390625t1.50146484375,0.5859375t1.171875,0.98876953125t0.46875,1.376953125q0,0.3662109375-0.12451171875,0.556640625t-0.50537109375,0.1904296875l-0.1611328125-0.029296875q0.4248046875,1.142578125,0.732421875,2.34375t0.6005859375,2.40234375q0.1171875,0.234375,0.17578125,0.41748046875t0.05859375,0.35888671875q0,0.234375-0.1318359375,0.38818359375t-0.34423828125,0.22705078125t-0.439453125,0.1025390625t-0.40283203125,0.029296875q-0.6298828125,0-0.94482421875-0.2197265625t-0.4541015625-0.6005859375t-0.16845703125-0.85693359375t-0.1171875-0.95947265625q-0.17578125,0.5712890625-0.46142578125,1.11328125t-0.673828125,0.97412109375t-0.91552734375,0.6884765625t-1.1865234375,0.25634765625q-0.966796875,0-1.6259765625-0.556640625t-1.06201171875-1.36962890625t-0.5859375-1.73583984375t-0.18310546875-1.7138671875z M106.02670898438,49.3310546875q0,0.5419921875,0.0732421875,1.142578125t0.24169921875,1.1865234375t0.43212890625,1.10595703125t0.6591796875,0.91552734375q0.7177734375-0.7763671875,1.06201171875-1.8896484375t0.615234375-2.14599609375t0.615234375-1.7724609375t1.06201171875-0.73974609375q0.4541015625,0,0.76171875,0.1611328125q-0.146484375-0.3662109375-0.4833984375-0.71044921875t-0.75439453125-0.6298828125t-0.8642578125-0.46875t-0.84228515625-0.18310546875q-0.1171875,0-0.27099609375,0.03662109375t-0.24169921875,0.00732421875q-0.6005859375,0.17578125-0.98876953125,0.60791015625t-0.6298828125,1.01806640625t-0.34423828125,1.201171875t-0.1025390625,1.1572265625z"/><path fill="#" d=""/></svg>
